<?xml version="1.0" encoding="UTF-8" standalone="no"?>
<!-- Created with Inkscape (http://www.inkscape.org/) -->

<svg
   width="124.63333mm"
   height="61.830265mm"
   viewBox="0 0 124.63333 61.830265"
   version="1.1"
   id="svg1"
   xml:space="preserve"
   xmlns="http://www.w3.org/2000/svg"
   xmlns:svg="http://www.w3.org/2000/svg"><defs
     id="defs1" /><g
     id="layer1"
     transform="translate(-58.675943,-114.34416)"><path
       style="fill:#3fc0b0;fill-opacity:1;stroke:#4098bf;stroke-width:1;stroke-dasharray:none;stroke-opacity:1"
       d="M 66.173746,132.40135 85.617036,119.593"
       id="path2-6" /><path
       style="fill:#3fc0b0;fill-opacity:1;stroke:#4098bf;stroke-width:1;stroke-dasharray:none;stroke-opacity:1"
       d="m 85.213176,121.26617 1.1539,23.59735"
       id="path3-1" /><path
       style="fill:#3fc0b0;fill-opacity:1;stroke:#4098bf;stroke-width:1;stroke-dasharray:none;stroke-opacity:1"
       d="M 87.982546,145.0366 107.65663,129.28581"
       id="path4-0" /><path
       style="fill:#3fc0b0;fill-opacity:1;stroke:#4098bf;stroke-width:1;stroke-dasharray:none;stroke-opacity:1"
       d="m 109.73366,153.17163 -2.07703,-23.48196"
       id="path5-6" /><path
       style="fill:#3fc0b0;fill-opacity:1;stroke:#4098bf;stroke-width:1;stroke-dasharray:none;stroke-opacity:1"
       d="m 64.154406,161.59514 22.55884,-16.15467"
       id="path6-3" /><path
       style="fill:#3fc0b0;fill-opacity:1;stroke:#4098bf;stroke-width:1;stroke-dasharray:none;stroke-opacity:1"
       d="m 91.213476,171.40333 -4.09636,-25.67438"
       id="path7-2" /><path
       style="fill:#3fc0b0;fill-opacity:1;stroke:#4098bf;stroke-width:1;stroke-dasharray:none;stroke-opacity:1"
       d="m 88.155636,145.72895 20.077944,6.69265"
       id="path8-0" /><path
       style="fill:#3fc0b0;fill-opacity:1;stroke:#4098bf;stroke-width:1;stroke-dasharray:none;stroke-opacity:1"
       d="m 134.42723,136.5554 14.07764,-16.15466"
       id="path10-1" /><path
       style="fill:#3fc0b0;fill-opacity:1;stroke:#4098bf;stroke-width:1;stroke-dasharray:none;stroke-opacity:1"
       d="m 149.65877,120.28535 17.65475,10.21206"
       id="path11-5" /><path
       style="fill:#3fc0b0;fill-opacity:1;stroke:#4098bf;stroke-width:1;stroke-dasharray:none;stroke-opacity:1"
       d="m 167.48661,131.24744 -12.63526,16.55854"
       id="path12-5" /><path
       style="fill:#3fc0b0;fill-opacity:1;stroke:#4098bf;stroke-width:1;stroke-dasharray:none;stroke-opacity:1"
       d="m 149.19721,121.43925 4.61562,25.73208"
       id="path13-4" /><path
       style="fill:#3fc0b0;fill-opacity:1;stroke:#4098bf;stroke-width:1;stroke-dasharray:none;stroke-opacity:1"
       d="m 168.40973,130.95897 9.80819,18.92403"
       id="path14-7" /><path
       style="fill:#3fc0b0;fill-opacity:1;stroke:#4098bf;stroke-width:1;stroke-dasharray:none;stroke-opacity:1"
       d="m 154.73596,148.55601 21.8665,1.61547"
       id="path15-6" /><circle
       style="fill:#3fc0b0;fill-opacity:1;stroke:#4098bf;stroke-width:0.264583;stroke-opacity:1"
       id="path1-56"
       cx="63.808235"
       cy="133.06485"
       r="5" /><circle
       style="fill:#3fc0b0;fill-opacity:1;stroke:#4098bf;stroke-width:0.264583;stroke-opacity:1"
       id="path1-5-9"
       cx="85.376953"
       cy="119.47645"
       r="5" /><circle
       style="fill:#3fc0b0;fill-opacity:1;stroke:#4098bf;stroke-width:0.264583;stroke-opacity:1"
       id="path1-2-3"
       cx="107.00287"
       cy="129.20537"
       r="5" /><circle
       style="fill:#3fc0b0;fill-opacity:1;stroke:#4098bf;stroke-width:0.264583;stroke-opacity:1"
       id="path1-7-7"
       cx="64.25708"
       cy="161.25133"
       r="5" /><circle
       style="fill:#3fc0b0;fill-opacity:1;stroke:#4098bf;stroke-width:0.264583;stroke-opacity:1"
       id="path1-6-4"
       cx="86.741364"
       cy="144.63808"
       r="5" /><circle
       style="fill:#3fc0b0;fill-opacity:1;stroke:#4098bf;stroke-width:0.264583;stroke-opacity:1"
       id="path1-61-5"
       cx="110.04562"
       cy="152.39488"
       r="5" /><circle
       style="fill:#3fc0b0;fill-opacity:1;stroke:#4098bf;stroke-width:0.264583;stroke-opacity:1"
       id="path1-20-2"
       cx="91.409409"
       cy="171.04213"
       r="5" /><circle
       style="fill:#26736a;fill-opacity:1;stroke:#4098bf;stroke-width:0.264583;stroke-opacity:1"
       id="path1-59-5"
       cx="133.21181"
       cy="137.65222"
       r="5" /><circle
       style="fill:#26736a;fill-opacity:1;stroke:#4098bf;stroke-width:0.264583;stroke-opacity:1"
       id="path1-9-4"
       cx="148.47836"
       cy="120.61395"
       r="5" /><circle
       style="fill:#26736a;fill-opacity:1;stroke:#4098bf;stroke-width:0.264583;stroke-opacity:1"
       id="path1-1-7"
       cx="154.57777"
       cy="147.285"
       r="5" /><circle
       style="fill:#26736a;fill-opacity:1;stroke:#4098bf;stroke-width:0.264583;stroke-opacity:1"
       id="path1-19-4"
       cx="167.02309"
       cy="130.4881"
       r="5" /><circle
       style="fill:#26736a;fill-opacity:1;stroke:#4098bf;stroke-width:0.264583;stroke-opacity:1"
       id="path1-4-4"
       cx="178.17699"
       cy="148.72971"
       r="5" /><g
       style="fill:#bf4077;fill-opacity:1;stroke-width:78.5752;stroke-dasharray:none"
       id="g20"
       transform="matrix(0.02402793,0,0,0.02402793,117.63731,139.89132)"><g
         id="g2"
         style="fill:#bf4077;fill-opacity:1;stroke-width:78.5752;stroke-dasharray:none"
         transform="rotate(9.3942579,2364.6725,-3378.7607)">
	<g
   id="g1"
   style="fill:#bf4077;fill-opacity:1;stroke-width:78.5752;stroke-dasharray:none">
		<path
   d="m 1039.9732,301.50031 c -15.5498,-15.82397 -41.07881,-16.04885 -56.90678,-0.49905 L 879.30434,402.95928 c -41.5261,-21.837 -94.15267,-15.61625 -129.36748,18.98828 l -76.22271,74.89647 c -35.21479,34.60253 -42.35954,87.11289 -21.25417,129.01458 L 547.74261,728.75728 c -15.82698,15.55181 -16.05086,41.08083 -0.49904,56.90681 7.77691,7.9125 18.04612,11.92471 28.34973,12.01507 10.3036,0.0904 20.6436,-3.74112 28.55608,-11.51603 L 708.84252,683.29025 c 15.44313,8.14873 32.71502,12.57136 50.70432,12.72912 29.64686,0.25999 57.5918,-11.01339 78.68839,-31.74319 5.28373,-5.19186 5.35821,-13.68454 0.16634,-18.96827 l -37.60484,-38.27023 c -2.49285,-2.53696 -5.89232,-3.98083 -9.45019,-4.01203 -3.55686,-0.0312 -6.98213,1.35283 -9.51908,3.84567 -1.62103,1.59185 -3.40106,2.95629 -5.28642,4.12981 4.91319,-14.02646 1.85648,-30.26689 -9.24487,-41.56467 -11.10136,-11.29679 -27.28569,-14.63784 -41.39615,-9.9714 1.2044,-1.86451 2.60185,-3.62132 4.22188,-5.21317 l 76.22171,-74.89648 c 1.40012,-1.37578 2.9057,-2.57662 4.48295,-3.62383 -5.13006,14.12456 -2.12329,30.58556 9.09105,41.99934 7.77691,7.9125 18.04612,11.9247 28.34973,12.01506 4.56282,0.04 9.13142,-0.69295 13.49374,-2.19275 -1.08681,1.57053 -2.32087,3.05376 -3.7119,4.42062 -2.53696,2.49285 -3.98083,5.89231 -4.01203,9.45018 -0.0312,3.55686 1.35282,6.98213 3.84567,9.51909 l 37.60585,38.27024 c 5.19187,5.28373 13.68455,5.35721 18.96827,0.16634 35.21479,-34.60252 42.35954,-87.11289 21.25417,-129.01458 L 1039.4732,358.40611 c 15.828,-15.5498 16.0518,-41.07782 0.5,-56.9058 z m -250.01282,332.78339 19.16273,19.50179 c -14.30167,10.16298 -31.40671,15.56619 -49.33902,15.40893 -10.6376,-0.0933 -20.94904,-2.14079 -30.52489,-5.96291 l 21.9752,-21.59312 c 2.879,0.46926 5.81284,0.728 8.78673,0.75408 10.71157,0.0949 20.99575,-2.73099 29.93925,-8.10877 z m -60.76709,-46.21166 c 2.63682,-2.59097 6.08316,-3.8688 9.51902,-3.83867 3.43487,0.0301 6.85827,1.36819 9.45025,4.00502 5.18393,5.27567 5.10932,13.78434 -0.16635,18.96828 L 585.34746,767.02752 c -5.27466,5.18394 -13.78433,5.10931 -18.96827,-0.16635 -5.18394,-5.27566 -5.10932,-13.78433 0.16634,-18.96827 z M 787.5417,460.2188 711.31999,535.11527 c -10.89026,10.70092 -16.96306,25.02021 -17.09723,40.31963 -0.0261,2.97388 0.18117,5.91081 0.59987,8.79759 l -21.94695,21.56538 c -11.44633,-30.23254 -4.85867,-65.74414 19.63939,-89.81824 l 76.22271,-74.89647 c 16.53007,-16.24266 38.12609,-24.24659 59.65126,-24.05783 10.3776,0.091 20.73443,2.09491 30.50061,5.9937 l -21.96513,21.58521 c -17.39776,-2.84067 -35.8739,2.34051 -49.38282,15.61456 z m 116.93177,99.86323 -19.15877,-19.49576 c 5.5328,-8.84782 8.53864,-19.07985 8.6326,-29.79444 0.0261,-2.97389 -0.18316,-5.91183 -0.59986,-8.7986 l 21.93586,-21.55447 c 9.92651,26.21306 6.30776,56.38848 -10.80983,79.64327 z M 1020.6723,339.27151 858.02251,499.09335 c -5.27466,5.18394 -13.78434,5.10932 -18.96827,-0.16634 -5.18394,-5.27567 -5.1093,-13.78634 0.16636,-18.97027 l 162.6477,-159.81887 c 5.2767,-5.18392 13.7864,-5.1103 18.9703,0.16636 5.1839,5.27567 5.1093,13.78434 -0.1663,18.96728 z"
   id="path1-3"
   style="fill:#bf4077;fill-opacity:1;stroke-width:78.5752;stroke-dasharray:none" />
	</g>
</g></g></g></svg>
